<mxfile host="app.diagrams.net" modified="2022-03-23T20:26:20.729Z" agent="5.0 (X11; Linux x86_64) AppleWebKit/537.36 (KHTML, like Gecko) Chrome/101.0.4911.0 Safari/537.36" etag="kX-jFmjGR_lz7fit1Vwk" version="17.2.1" type="github">
  <diagram id="KpQREBoE3txycr0vQjFi" name="Page-1">
    <mxGraphModel dx="948" dy="595" grid="1" gridSize="10" guides="1" tooltips="1" connect="1" arrows="1" fold="1" page="1" pageScale="1" pageWidth="827" pageHeight="1169" math="0" shadow="0">
      <root>
        <mxCell id="0" />
        <mxCell id="1" parent="0" />
        <mxCell id="kmByS8sG0fMSxnZMzZxY-3" value="" style="edgeStyle=orthogonalEdgeStyle;rounded=0;orthogonalLoop=1;jettySize=auto;html=1;" edge="1" parent="1" source="kmByS8sG0fMSxnZMzZxY-1" target="kmByS8sG0fMSxnZMzZxY-2">
          <mxGeometry relative="1" as="geometry" />
        </mxCell>
        <mxCell id="kmByS8sG0fMSxnZMzZxY-9" value="" style="edgeStyle=orthogonalEdgeStyle;rounded=0;orthogonalLoop=1;jettySize=auto;html=1;curved=1;" edge="1" parent="1" source="kmByS8sG0fMSxnZMzZxY-1" target="kmByS8sG0fMSxnZMzZxY-8">
          <mxGeometry relative="1" as="geometry" />
        </mxCell>
        <mxCell id="kmByS8sG0fMSxnZMzZxY-1" value="Term grammar" style="rounded=1;whiteSpace=wrap;html=1;" vertex="1" parent="1">
          <mxGeometry x="290" y="140" width="120" height="60" as="geometry" />
        </mxCell>
        <mxCell id="kmByS8sG0fMSxnZMzZxY-5" value="" style="edgeStyle=orthogonalEdgeStyle;rounded=0;orthogonalLoop=1;jettySize=auto;html=1;" edge="1" parent="1" source="kmByS8sG0fMSxnZMzZxY-2" target="kmByS8sG0fMSxnZMzZxY-4">
          <mxGeometry relative="1" as="geometry" />
        </mxCell>
        <mxCell id="kmByS8sG0fMSxnZMzZxY-13" style="edgeStyle=orthogonalEdgeStyle;curved=1;rounded=0;orthogonalLoop=1;jettySize=auto;html=1;" edge="1" parent="1" source="kmByS8sG0fMSxnZMzZxY-2" target="kmByS8sG0fMSxnZMzZxY-12">
          <mxGeometry relative="1" as="geometry" />
        </mxCell>
        <mxCell id="kmByS8sG0fMSxnZMzZxY-2" value="VariableRef" style="ellipse;whiteSpace=wrap;html=1;rounded=1;" vertex="1" parent="1">
          <mxGeometry x="290" y="220" width="120" height="60" as="geometry" />
        </mxCell>
        <mxCell id="kmByS8sG0fMSxnZMzZxY-7" value="" style="edgeStyle=orthogonalEdgeStyle;rounded=0;orthogonalLoop=1;jettySize=auto;html=1;curved=1;" edge="1" parent="1" source="kmByS8sG0fMSxnZMzZxY-4" target="kmByS8sG0fMSxnZMzZxY-6">
          <mxGeometry relative="1" as="geometry" />
        </mxCell>
        <mxCell id="kmByS8sG0fMSxnZMzZxY-4" value="Identifier" style="shape=parallelogram;perimeter=parallelogramPerimeter;whiteSpace=wrap;html=1;fixedSize=1;rounded=1;" vertex="1" parent="1">
          <mxGeometry x="290" y="300" width="120" height="60" as="geometry" />
        </mxCell>
        <mxCell id="kmByS8sG0fMSxnZMzZxY-39" style="edgeStyle=orthogonalEdgeStyle;curved=1;rounded=0;orthogonalLoop=1;jettySize=auto;html=1;" edge="1" parent="1" source="kmByS8sG0fMSxnZMzZxY-6" target="kmByS8sG0fMSxnZMzZxY-38">
          <mxGeometry relative="1" as="geometry" />
        </mxCell>
        <mxCell id="kmByS8sG0fMSxnZMzZxY-6" value="UnresolvedRef" style="rhombus;whiteSpace=wrap;html=1;rounded=1;" vertex="1" parent="1">
          <mxGeometry x="170" y="290" width="100" height="80" as="geometry" />
        </mxCell>
        <mxCell id="kmByS8sG0fMSxnZMzZxY-11" value="" style="edgeStyle=orthogonalEdgeStyle;curved=1;rounded=0;orthogonalLoop=1;jettySize=auto;html=1;" edge="1" parent="1" source="kmByS8sG0fMSxnZMzZxY-8" target="kmByS8sG0fMSxnZMzZxY-2">
          <mxGeometry relative="1" as="geometry">
            <mxPoint x="530.0285714285715" y="420" as="targetPoint" />
          </mxGeometry>
        </mxCell>
        <mxCell id="kmByS8sG0fMSxnZMzZxY-8" value="FunctionRef" style="ellipse;whiteSpace=wrap;html=1;rounded=1;" vertex="1" parent="1">
          <mxGeometry x="450" y="220" width="120" height="60" as="geometry" />
        </mxCell>
        <mxCell id="kmByS8sG0fMSxnZMzZxY-15" value="" style="edgeStyle=orthogonalEdgeStyle;curved=1;rounded=0;orthogonalLoop=1;jettySize=auto;html=1;entryX=0.5;entryY=0;entryDx=0;entryDy=0;" edge="1" parent="1" source="kmByS8sG0fMSxnZMzZxY-12" target="kmByS8sG0fMSxnZMzZxY-20">
          <mxGeometry relative="1" as="geometry">
            <mxPoint x="474.02857142857147" y="450" as="targetPoint" />
          </mxGeometry>
        </mxCell>
        <mxCell id="kmByS8sG0fMSxnZMzZxY-12" value="LParen" style="shape=parallelogram;perimeter=parallelogramPerimeter;whiteSpace=wrap;html=1;fixedSize=1;rounded=1;" vertex="1" parent="1">
          <mxGeometry x="414" y="340" width="120" height="60" as="geometry" />
        </mxCell>
        <mxCell id="kmByS8sG0fMSxnZMzZxY-22" value="" style="edgeStyle=orthogonalEdgeStyle;curved=1;rounded=0;orthogonalLoop=1;jettySize=auto;html=1;" edge="1" parent="1" source="kmByS8sG0fMSxnZMzZxY-20" target="kmByS8sG0fMSxnZMzZxY-21">
          <mxGeometry relative="1" as="geometry" />
        </mxCell>
        <mxCell id="kmByS8sG0fMSxnZMzZxY-26" value="" style="edgeStyle=orthogonalEdgeStyle;curved=1;rounded=0;orthogonalLoop=1;jettySize=auto;html=1;" edge="1" parent="1" source="kmByS8sG0fMSxnZMzZxY-20" target="kmByS8sG0fMSxnZMzZxY-21">
          <mxGeometry relative="1" as="geometry" />
        </mxCell>
        <mxCell id="kmByS8sG0fMSxnZMzZxY-27" value="" style="edgeStyle=orthogonalEdgeStyle;curved=1;rounded=0;orthogonalLoop=1;jettySize=auto;html=1;" edge="1" parent="1" source="kmByS8sG0fMSxnZMzZxY-20" target="kmByS8sG0fMSxnZMzZxY-21">
          <mxGeometry relative="1" as="geometry" />
        </mxCell>
        <mxCell id="kmByS8sG0fMSxnZMzZxY-28" value="" style="edgeStyle=orthogonalEdgeStyle;curved=1;rounded=0;orthogonalLoop=1;jettySize=auto;html=1;" edge="1" parent="1" source="kmByS8sG0fMSxnZMzZxY-20" target="kmByS8sG0fMSxnZMzZxY-21">
          <mxGeometry relative="1" as="geometry" />
        </mxCell>
        <mxCell id="kmByS8sG0fMSxnZMzZxY-29" value="" style="edgeStyle=orthogonalEdgeStyle;curved=1;rounded=0;orthogonalLoop=1;jettySize=auto;html=1;" edge="1" parent="1" source="kmByS8sG0fMSxnZMzZxY-20" target="kmByS8sG0fMSxnZMzZxY-21">
          <mxGeometry relative="1" as="geometry" />
        </mxCell>
        <mxCell id="kmByS8sG0fMSxnZMzZxY-31" style="edgeStyle=orthogonalEdgeStyle;curved=1;rounded=0;orthogonalLoop=1;jettySize=auto;html=1;" edge="1" parent="1" source="kmByS8sG0fMSxnZMzZxY-20" target="kmByS8sG0fMSxnZMzZxY-30">
          <mxGeometry relative="1" as="geometry" />
        </mxCell>
        <mxCell id="kmByS8sG0fMSxnZMzZxY-20" value="" style="triangle;whiteSpace=wrap;html=1;" vertex="1" parent="1">
          <mxGeometry x="464" y="420" width="20" height="30" as="geometry" />
        </mxCell>
        <mxCell id="kmByS8sG0fMSxnZMzZxY-24" value="" style="edgeStyle=orthogonalEdgeStyle;curved=1;rounded=0;orthogonalLoop=1;jettySize=auto;html=1;" edge="1" parent="1" source="kmByS8sG0fMSxnZMzZxY-21" target="kmByS8sG0fMSxnZMzZxY-35">
          <mxGeometry relative="1" as="geometry">
            <mxPoint x="614" y="500" as="targetPoint" />
          </mxGeometry>
        </mxCell>
        <mxCell id="kmByS8sG0fMSxnZMzZxY-32" style="edgeStyle=orthogonalEdgeStyle;curved=1;rounded=0;orthogonalLoop=1;jettySize=auto;html=1;" edge="1" parent="1" source="kmByS8sG0fMSxnZMzZxY-21" target="kmByS8sG0fMSxnZMzZxY-30">
          <mxGeometry relative="1" as="geometry" />
        </mxCell>
        <mxCell id="kmByS8sG0fMSxnZMzZxY-21" value="Expression grammar" style="rounded=1;whiteSpace=wrap;html=1;" vertex="1" parent="1">
          <mxGeometry x="414" y="470" width="120" height="60" as="geometry" />
        </mxCell>
        <mxCell id="kmByS8sG0fMSxnZMzZxY-34" value="" style="edgeStyle=orthogonalEdgeStyle;curved=1;rounded=0;orthogonalLoop=1;jettySize=auto;html=1;" edge="1" parent="1" source="kmByS8sG0fMSxnZMzZxY-30" target="kmByS8sG0fMSxnZMzZxY-33">
          <mxGeometry relative="1" as="geometry" />
        </mxCell>
        <mxCell id="kmByS8sG0fMSxnZMzZxY-30" value="RParen" style="shape=parallelogram;perimeter=parallelogramPerimeter;whiteSpace=wrap;html=1;fixedSize=1;rounded=1;" vertex="1" parent="1">
          <mxGeometry x="250" y="470" width="120" height="60" as="geometry" />
        </mxCell>
        <mxCell id="kmByS8sG0fMSxnZMzZxY-40" style="edgeStyle=orthogonalEdgeStyle;curved=1;rounded=0;orthogonalLoop=1;jettySize=auto;html=1;" edge="1" parent="1" source="kmByS8sG0fMSxnZMzZxY-33" target="kmByS8sG0fMSxnZMzZxY-38">
          <mxGeometry relative="1" as="geometry" />
        </mxCell>
        <mxCell id="kmByS8sG0fMSxnZMzZxY-33" value="UnresolvedFunRef" style="rhombus;whiteSpace=wrap;html=1;rounded=1;" vertex="1" parent="1">
          <mxGeometry x="250" y="560" width="120" height="80" as="geometry" />
        </mxCell>
        <mxCell id="kmByS8sG0fMSxnZMzZxY-36" style="edgeStyle=orthogonalEdgeStyle;curved=1;rounded=0;orthogonalLoop=1;jettySize=auto;html=1;" edge="1" parent="1" source="kmByS8sG0fMSxnZMzZxY-35" target="kmByS8sG0fMSxnZMzZxY-20">
          <mxGeometry relative="1" as="geometry">
            <Array as="points">
              <mxPoint x="610" y="435" />
            </Array>
          </mxGeometry>
        </mxCell>
        <mxCell id="kmByS8sG0fMSxnZMzZxY-35" value="Comma" style="shape=parallelogram;perimeter=parallelogramPerimeter;whiteSpace=wrap;html=1;fixedSize=1;rounded=1;" vertex="1" parent="1">
          <mxGeometry x="550" y="470" width="120" height="60" as="geometry" />
        </mxCell>
        <mxCell id="kmByS8sG0fMSxnZMzZxY-41" style="edgeStyle=orthogonalEdgeStyle;curved=1;rounded=0;orthogonalLoop=1;jettySize=auto;html=1;" edge="1" parent="1" source="kmByS8sG0fMSxnZMzZxY-38" target="kmByS8sG0fMSxnZMzZxY-1">
          <mxGeometry relative="1" as="geometry">
            <Array as="points">
              <mxPoint x="110" y="170" />
            </Array>
          </mxGeometry>
        </mxCell>
        <mxCell id="kmByS8sG0fMSxnZMzZxY-43" value="" style="edgeStyle=orthogonalEdgeStyle;curved=1;rounded=0;orthogonalLoop=1;jettySize=auto;html=1;" edge="1" parent="1" source="kmByS8sG0fMSxnZMzZxY-38" target="kmByS8sG0fMSxnZMzZxY-42">
          <mxGeometry relative="1" as="geometry" />
        </mxCell>
        <mxCell id="kmByS8sG0fMSxnZMzZxY-38" value="Dot" style="shape=parallelogram;perimeter=parallelogramPerimeter;whiteSpace=wrap;html=1;fixedSize=1;rounded=1;" vertex="1" parent="1">
          <mxGeometry x="110" y="440" width="120" height="60" as="geometry" />
        </mxCell>
        <mxCell id="kmByS8sG0fMSxnZMzZxY-42" value="TermChain" style="rhombus;whiteSpace=wrap;html=1;rounded=1;" vertex="1" parent="1">
          <mxGeometry y="430" width="80" height="80" as="geometry" />
        </mxCell>
      </root>
    </mxGraphModel>
  </diagram>
</mxfile>
